:SAMPLES-PER-SECOND 30
:FULLY-SPECIFIED
:DEGREES
464
root  -41.9509 38.4865 -27.5508 -109.317 -83.2887 146.211
RightUpLeg  -66.7062 -16.2661 15.0649
RightLeg  31.4661 -1.47373 -1.21975
RightFoot  -1.67175 0.883648 -10.5383
RightToes  0.00048216 0.542163 -0.142577
Spine  69.2291 -4.45938 6.01029
Spine1  8.67912 0.70976 -4.33943
HEad  -33.9717 -4.34038 -1.5711
LeftShoulder1  5.04079 -23.0572 -11.7513
LeftArm  -97.9174 -70.1693 50.7747
LeftForeArm  10.9963 -0.895791 0.187275
LeftHand  -0.25398 0.0180481 5.50724
RightShoulder  2.01006 13.4691 3.89886
RightArm  -80.4683 59.9169 -33.1627
RightForeArm  -26.3873 2.31396 1.45016
RightHand  -3.99978 10.8745 -28.4368
LeftUpLeg  -64.247 17.0381 -20.7706
LeftLeg  26.7404 2.82913 1.89008
LeftFoot  0.96363 -0.642501 5.89897
LeftToes  1.06248e-005 4.65855e-005 -8.185e-006
465
root  -41.5507 38.6374 -27.5218 -111.006 -83.3776 146.326
RightUpLeg  -64.808 -17.1252 15.5347
RightLeg  29.4546 -0.894673 -0.787206
RightFoot  -0.804261 1.02934 -11.1718
RightToes  0.00048216 0.542163 -0.142577
Spine  68.5488 -4.44074 6.4778
Spine1  8.13034 0.973472 -4.08549
HEad  -33.8153 -4.83918 -2.11328
LeftShoulder1  5.34981 -24.3086 -12.0121
LeftArm  -91.8773 -71.1852 46.0295
LeftForeArm  16.1927 0.901875 -0.512273
LeftHand  -0.25398 0.0180481 5.50724
RightShoulder  1.98546 12.9977 4.11074
RightArm  -80.8485 62.1816 -35.9563
RightForeArm  -19.6896 -0.544478 1.70913
RightHand  -3.55608 9.4812 -27.6797
LeftUpLeg  -62.458 17.8577 -20.8641
LeftLeg  24.9022 2.36349 1.53368
LeftFoot  2.16037 -0.772105 6.40272
LeftToes  1.06248e-005 4.65855e-005 -8.185e-006
466
root  -41.1571 38.8136 -27.5127 -112.723 -83.3968 146.118
RightUpLeg  -62.5868 -18.1924 15.8636
RightLeg  27.5086 -0.172808 -0.332577
RightFoot  0.286495 1.20627 -11.7721
RightToes  0.00048216 0.542163 -0.142577
Spine  67.6238 -4.43644 6.88162
Spine1  8.22084 1.15506 -3.92776
HEad  -33.608 -5.48702 -2.60431
LeftShoulder1  5.85115 -25.3855 -13.1086
LeftArm  -82.4262 -72.1446 36.838
LeftForeArm  17.9825 1.64972 -1.27946
LeftHand  -0.25398 0.0180481 5.50724
RightShoulder  1.85768 12.2092 3.88151
RightArm  -79.9866 64.4904 -35.2138
RightForeArm  -10.4926 -1.26126 1.77404
RightHand  -3.57527 9.59828 -27.6084
LeftUpLeg  -60.1269 18.5577 -20.5615
LeftLeg  22.8962 2.17815 1.34324
LeftFoot  3.60761 -0.897839 6.6719
LeftToes  1.06248e-005 4.65855e-005 -8.185e-006
467
root  -40.7769 39.0022 -27.5272 -114.001 -83.4799 145.137
RightUpLeg  -59.9729 -19.49 16.0372
RightLeg  25.5697 0.63549 0.10309
RightFoot  1.38311 1.37584 -12.1969
RightToes  0.00048216 0.542163 -0.142577
Spine  66.5145 -4.45933 7.13448
Spine1  8.80475 1.20512 -3.78174
HEad  -33.5336 -5.6803 -2.9333
LeftShoulder1  6.5811 -26.111 -15.2439
LeftArm  -69.9509 -72.429 23.8167
LeftForeArm  17.2165 1.68692 -1.98956
LeftHand  -0.25398 0.0180481 5.50724
RightShoulder  1.88139 11.8155 4.39839
RightArm  -77.1383 66.4876 -30.9757
RightForeArm  -3.48325 0.26346 1.93013
RightHand  -3.7825 10.2579 -27.9637
LeftUpLeg  -57.401 19.2771 -19.9567
LeftLeg  20.9875 1.75914 1.07931
LeftFoot  5.09979 -0.966331 6.46828
LeftToes  1.06248e-005 4.65855e-005 -8.185e-006
468
root  -40.4091 39.1935 -27.5714 -113.693 -83.8057 142.627
RightUpLeg  -57.2985 -20.9087 16.224
RightLeg  23.4614 1.3979 0.421916
RightFoot  2.47327 1.51334 -12.2937
RightToes  0.00048216 0.542163 -0.142577
Spine  65.1161 -4.59289 7.33191
Spine1  9.38312 1.1066 -3.7534
HEad  -33.9082 -5.16568 -2.9496
LeftShoulder1  7.3569 -26.474 -17.7435
LeftArm  -55.7228 -71.3584 8.78233
LeftForeArm  16.1891 1.85674 -2.58972
LeftHand  -0.25398 0.0180481 5.50724
RightShoulder  2.18504 12.1067 6.32537
RightArm  -71.5699 67.9625 -24.1176
RightForeArm  -0.701664 2.6878 2.56189
RightHand  -3.91131 10.7103 -28.1004
LeftUpLeg  -54.8698 20.2037 -19.5375
LeftLeg  19.2057 0.780196 0.649552
LeftFoot  6.86037 -1.04406 6.24289
LeftToes  1.06248e-005 4.65855e-005 -8.185e-006
469
root  -40.0514 39.3889 -27.6407 -110.444 -84.2904 137.408
RightUpLeg  -54.7607 -22.5369 16.4312
RightLeg  21.1126 2.12713 0.775402
RightFoot  3.61735 1.65125 -12.3268
RightToes  0.00048216 0.542163 -0.142577
Spine  63.4432 -4.73966 7.56546
Spine1  9.59406 0.893422 -3.629
HEad  -34.2477 -4.63725 -2.93874
LeftShoulder1  8.11189 -26.6106 -20.3024
LeftArm  -42.0635 -68.534 -5.35536
LeftForeArm  16.1037 2.39404 -3.24246
LeftHand  -0.25398 0.0180481 5.50724
RightShoulder  2.60465 12.5842 8.79064
RightArm  -62.564 68.7626 -14.3468
RightForeArm  -1.26565 4.45517 3.54538
RightHand  -3.82137 10.5746 -27.7061
LeftUpLeg  -52.3996 20.8698 -18.8955
LeftLeg  17.2385 -0.013584 0.0255399
LeftFoot  9.09499 -1.12165 5.91898
LeftToes  1.06248e-005 4.65855e-005 -8.185e-006
470
root  -39.7083 39.5883 -27.7154 -104.45 -84.6268 129.426
RightUpLeg  -51.5811 -23.4884 14.9563
RightLeg  18.6598 1.34504 1.56083
RightFoot  4.75664 1.81459 -12.5375
RightToes  0.00048216 0.542163 -0.142577
Spine  61.8259 -4.63533 7.74425
Spine1  9.37295 0.670718 -2.99213
HEad  -33.8201 -4.76411 -3.32488
LeftShoulder1  9.01543 -26.6128 -23.4692
LeftArm  -31.2026 -64.0598 -16.4639
LeftForeArm  17.1026 2.66228 -3.94319
LeftHand  -0.25398 0.0180481 5.50724
RightShoulder  2.94393 12.8739 10.779
RightArm  -50.421 68.1555 -1.90593
RightForeArm  -3.05251 5.20646 4.59545
RightHand  -3.53324 9.82372 -26.9185
LeftUpLeg  -48.8733 19.6439 -15.9691
LeftLeg  15.1403 0.886549 -0.988686
LeftFoot  10.9431 -0.836784 3.92415
LeftToes  1.06248e-005 4.65855e-005 -8.185e-006
471
root  -39.386 39.7785 -27.7669 -98.0704 -84.6633 120.823
RightUpLeg  -47.0139 -22.1044 10.1941
RightLeg  16.2622 -2.80327 2.83142
RightFoot  5.76478 1.9419 -12.5873
RightToes  0.00048216 0.542163 -0.142577
Spine  60.5204 -4.25034 7.78042
Spine1  8.93638 0.564205 -2.00336
HEad  -32.7744 -5.30893 -3.97622
LeftShoulder1  10.0814 -26.4725 -27.3124
LeftArm  -24.1582 -58.3127 -24.0224
LeftForeArm  18.903 2.17646 -4.40108
LeftHand  -0.25398 0.0180481 5.50724
RightShoulder  3.24132 13.0613 12.5395
RightArm  -38.0682 65.593 9.64972
RightForeArm  -4.47386 5.51718 5.69665
RightHand  -3.17491 8.78835 -25.994
LeftUpLeg  -44.8264 17.2079 -12.3114
LeftLeg  13.9016 0.842573 -1.79172
LeftFoot  10.6685 0.0324492 -0.565199
LeftToes  1.06248e-005 4.65855e-005 -8.185e-006
472
root  -39.0819 39.9367 -27.7687 -92.8648 -84.5201 113.3
RightUpLeg  -42.527 -19.5502 5.10263
RightLeg  14.1677 -7.64308 3.87354
RightFoot  6.60466 1.96899 -12.1272
RightToes  0.00048216 0.542163 -0.142577
Spine  59.5487 -4.01182 7.68894
Spine1  8.34434 0.42991 -1.47412
HEad  -31.7603 -5.42501 -4.36528
LeftShoulder1  10.9059 -25.9161 -30.8437
LeftArm  -20.0208 -51.8229 -28.3383
LeftForeArm  20.2596 1.37061 -4.71782
LeftHand  -0.25398 0.0180481 5.50724
RightShoulder  3.64881 13.3711 14.7926
RightArm  -27.7458 61.719 17.9411
RightForeArm  -4.59156 5.7221 6.83357
RightHand  -2.86707 7.89426 -25.0906
LeftUpLeg  -41.456 15.5111 -10.4594
LeftLeg  14.7537 -1.8623 -1.60083
LeftFoot  7.45454 0.790434 -5.06194
LeftToes  1.06248e-005 4.65855e-005 -8.185e-006
473
root  -38.7879 40.0527 -27.7117 -88.3499 -84.285 106.564
RightUpLeg  -38.9696 -17.2795 1.30333
RightLeg  12.5901 -11.4066 4.41704
RightFoot  7.3535 1.94229 -11.4438
RightToes  0.00048216 0.542163 -0.142577
Spine  58.7546 -4.18323 7.42508
Spine1  7.69003 0.00363303 -1.61838
HEad  -31.1103 -4.74978 -4.46358
LeftShoulder1  11.1406 -24.67 -33.3343
LeftArm  -16.7303 -45.3664 -30.3103
LeftForeArm  19.8305 1.04919 -5.35344
LeftHand  -0.25398 0.0180481 5.50724
RightShoulder  4.14215 13.8696 17.2193
RightArm  -19.6599 57.5053 23.9521
RightForeArm  -3.15516 5.62565 7.77182
RightHand  -2.69957 7.4801 -24.4127
LeftUpLeg  -38.4565 13.6377 -9.263
LeftLeg  17.6379 -2.39497 -0.499035
LeftFoot  2.70427 0.76135 -6.2106
LeftToes  1.06248e-005 4.65855e-005 -8.185e-006
474
root  -38.5032 40.1243 -27.6002 -84.824 -84.0252 100.892
RightUpLeg  -36.1594 -15.8766 -1.22089
RightLeg  11.5603 -13.7855 4.64707
RightFoot  7.99573 1.94381 -11.0418
RightToes  0.00048216 0.542163 -0.142577
Spine  57.0151 -4.26182 7.48979
Spine1  8.62379 -0.112655 -1.88944
HEad  -31.2448 -4.71213 -4.37802
LeftShoulder1  11.2025 -23.9407 -34.6211
LeftArm  -14.0227 -39.761 -31.6069
LeftForeArm  18.5968 1.45391 -5.97066
LeftHand  -0.25398 0.0180481 5.50724
RightShoulder  4.63103 14.0728 19.9177
RightArm  -14.4739 53.1466 26.6914
RightForeArm  -1.50784 5.2557 8.47969
RightHand  -2.65374 7.43753 -24.0906
LeftUpLeg  -35.1477 10.1985 -7.19486
LeftLeg  21.5214 2.51696 1.45336
LeftFoot  -1.5791 0.409023 -4.67005
LeftToes  1.06248e-005 4.65855e-005 -8.185e-006
475
root  -38.2273 40.1493 -27.4289 -82.7234 -83.8901 96.748
RightUpLeg  -33.8847 -15.1428 -2.86207
RightLeg  11.0237 -15.1374 4.74004
RightFoot  8.44191 1.96499 -10.8931
RightToes  0.00048216 0.542163 -0.142577
Spine  55.4748 -4.20148 7.68866
Spine1  8.96459 -0.116837 -1.80213
HEad  -31.31 -4.79897 -4.37716
LeftShoulder1  11.3863 -23.2111 -36.4047
LeftArm  -12.0524 -33.8656 -32.2679
LeftForeArm  18.0462 1.32474 -6.42604
LeftHand  -0.25398 0.0180481 5.50724
RightShoulder  5.20508 14.3968 22.8198
RightArm  -10.4415 48.067 27.6252
RightForeArm  -0.845538 4.83625 9.18673
RightHand  -2.62463 7.34752 -23.9975
LeftUpLeg  -31.8047 7.38585 -5.86823
LeftLeg  25.6472 7.46219 4.21498
LeftFoot  -4.85076 0.235685 -3.71084
LeftToes  1.06248e-005 4.65855e-005 -8.185e-006
